<svg xmlns="http://www.w3.org/2000/svg" xmlns:xlink="http://www.w3.org/1999/xlink" width="700" zoomAndPan="magnify" viewBox="0 0 525 187.499995" height="250" preserveAspectRatio="xMidYMid meet" version="1.0"><defs><g/><clipPath id="97898c7c88"><path d="M 0.699219 0 L 151 0 L 151 187 L 0.699219 187 Z M 0.699219 0 " clip-rule="nonzero"/></clipPath></defs><g clip-path="url(#97898c7c88)"><path stroke-linecap="butt" transform="matrix(0.802283, 0, 0, 0.802283, 28.181338, -70.925201)" fill="none" stroke-linejoin="miter" d="M 3.732403 276.729125 C 4.039144 276.729125 4.647759 276.427252 5.027535 276.120511 L 101.695042 229.958295 C 103.598789 228.965036 104.820887 226.832449 103.598789 224.626829 C 102.688301 222.796116 100.477812 222.109598 98.574065 223.102858 L 7.466863 266.44597 L 7.466863 233.386013 C 20.870996 227.445933 84.863191 198.724183 93.315633 194.381108 C 98.875938 191.260131 102.303656 186.230538 102.303656 180.976975 C 102.303656 175.338768 98.574065 170.309175 93.315633 167.567974 C 86.08042 164.062353 8.455254 128.86981 5.027535 127.272805 C 3.732403 126.966063 2.515173 126.966063 1.220041 127.574678 C 0.304684 128.567937 -0.303931 129.785167 -0.303931 131.002397 L -0.303931 169.70056 C -0.303931 170.995693 0.611426 172.519664 2.208431 173.128279 L 36.490486 187.525671 C 38.696106 188.441027 41.213337 187.525671 41.821952 185.621924 C 42.430566 183.411435 41.821952 180.976975 39.918204 180.290458 L 7.466863 166.881457 L 7.466863 137.249219 C 25.900588 145.70653 83.947834 171.604307 89.887914 174.730153 C 92.707018 175.947383 94.537732 178.459745 94.537732 180.976975 C 94.537732 183.411435 92.707018 185.621924 89.586041 187.223798 C 80.821988 192.175488 2.515173 227.139191 1.906558 227.445933 C 0.304684 228.054548 -0.303931 229.651553 -0.303931 230.873652 L -0.303931 272.692792 C -0.303931 273.910022 0.304684 275.205154 1.220041 275.813769 C 1.906558 276.120511 2.817046 276.729125 3.732403 276.729125 Z M 3.732403 276.729125 " stroke="#a9f987" stroke-width="8.580605" stroke-opacity="1" stroke-miterlimit="4"/></g><g fill="#545454" fill-opacity="1"><g transform="translate(132.737335, 110.330777)"><g><path d="M 18.9375 -17.953125 L 13.65625 -17.953125 L 13.703125 -7.046875 C 13.703125 -6.679688 13.769531 -6.40625 13.90625 -6.21875 C 14.039062 -6.03125 14.210938 -5.898438 14.421875 -5.828125 C 14.640625 -5.765625 14.882812 -5.734375 15.15625 -5.734375 L 18.9375 -5.734375 L 18.9375 -0.375 C 18.601562 -0.21875 18.078125 -0.0546875 17.359375 0.109375 C 16.648438 0.285156 15.570312 0.375 14.125 0.375 C 11.59375 0.375 9.640625 0.0625 8.265625 -0.5625 C 6.890625 -1.195312 5.9375 -2.039062 5.40625 -3.09375 C 4.875 -4.15625 4.609375 -5.332031 4.609375 -6.625 L 4.609375 -17.953125 L 0.703125 -17.953125 L 0.703125 -24.109375 L 4.9375 -24.109375 L 7.28125 -31.609375 L 13.65625 -31.609375 L 13.65625 -24.15625 L 18.9375 -24.15625 Z M 18.9375 -17.953125 "/></g></g></g><g fill="#545454" fill-opacity="1"><g transform="translate(153.297607, 110.330777)"><g><path d="M 2.328125 0 L 2.328125 -34.640625 L 11.40625 -34.640625 L 11.40625 -20.671875 C 11.769531 -21.140625 12.203125 -21.640625 12.703125 -22.171875 C 13.210938 -22.703125 13.867188 -23.15625 14.671875 -23.53125 C 15.472656 -23.914062 16.503906 -24.109375 17.765625 -24.109375 C 19.273438 -24.109375 20.664062 -23.800781 21.9375 -23.1875 C 23.207031 -22.570312 24.234375 -21.664062 25.015625 -20.46875 C 25.796875 -19.269531 26.1875 -17.789062 26.1875 -16.03125 L 26.1875 0 L 17.09375 0 L 17.09375 -14.875 C 17.09375 -15.664062 16.785156 -16.257812 16.171875 -16.65625 C 15.566406 -17.050781 14.925781 -17.25 14.25 -17.25 C 13.8125 -17.25 13.367188 -17.148438 12.921875 -16.953125 C 12.484375 -16.765625 12.117188 -16.484375 11.828125 -16.109375 C 11.546875 -15.734375 11.40625 -15.28125 11.40625 -14.75 L 11.40625 0 Z M 2.328125 0 "/></g></g></g><g fill="#545454" fill-opacity="1"><g transform="translate(181.573806, 110.330777)"><g><path d="M 10.1875 -9.984375 C 10.175781 -9.015625 10.320312 -8.226562 10.625 -7.625 C 10.9375 -7.019531 11.359375 -6.578125 11.890625 -6.296875 C 12.429688 -6.015625 13.03125 -5.875 13.6875 -5.875 C 14.507812 -5.875 15.25 -6.03125 15.90625 -6.34375 C 16.570312 -6.65625 17.09375 -7.273438 17.46875 -8.203125 L 25.484375 -8.203125 C 25.234375 -6.421875 24.523438 -4.878906 23.359375 -3.578125 C 22.191406 -2.273438 20.769531 -1.273438 19.09375 -0.578125 C 17.425781 0.117188 15.703125 0.46875 13.921875 0.46875 C 11.421875 0.46875 9.21875 -0.0390625 7.3125 -1.0625 C 5.40625 -2.082031 3.921875 -3.507812 2.859375 -5.34375 C 1.804688 -7.175781 1.28125 -9.3125 1.28125 -11.75 C 1.28125 -14.050781 1.765625 -16.171875 2.734375 -18.109375 C 3.710938 -20.054688 5.113281 -21.617188 6.9375 -22.796875 C 8.757812 -23.984375 10.960938 -24.578125 13.546875 -24.578125 C 16.171875 -24.578125 18.359375 -24.03125 20.109375 -22.9375 C 21.867188 -21.851562 23.1875 -20.363281 24.0625 -18.46875 C 24.945312 -16.582031 25.390625 -14.453125 25.390625 -12.078125 L 25.390625 -9.984375 Z M 10.140625 -15.0625 L 17.015625 -15.0625 C 17.015625 -15.664062 16.878906 -16.226562 16.609375 -16.75 C 16.347656 -17.269531 15.960938 -17.6875 15.453125 -18 C 14.941406 -18.3125 14.304688 -18.46875 13.546875 -18.46875 C 12.921875 -18.46875 12.351562 -18.3125 11.84375 -18 C 11.332031 -17.6875 10.921875 -17.269531 10.609375 -16.75 C 10.296875 -16.226562 10.140625 -15.664062 10.140625 -15.0625 Z M 10.140625 -15.0625 "/></g></g></g><g fill="#545454" fill-opacity="1"><g transform="translate(208.334797, 110.330777)"><g/></g></g><g fill="#545454" fill-opacity="1"><g transform="translate(217.449388, 110.330777)"><g><path d="M 13.3125 -24.578125 C 15.582031 -24.578125 17.5 -24.09375 19.0625 -23.125 C 20.625 -22.164062 21.8125 -20.898438 22.625 -19.328125 C 23.4375 -17.753906 23.859375 -16.066406 23.890625 -14.265625 L 16.546875 -14.265625 C 16.484375 -14.710938 16.351562 -15.21875 16.15625 -15.78125 C 15.957031 -16.34375 15.640625 -16.828125 15.203125 -17.234375 C 14.765625 -17.648438 14.15625 -17.859375 13.375 -17.859375 C 12.21875 -17.859375 11.285156 -17.367188 10.578125 -16.390625 C 9.867188 -15.421875 9.515625 -13.96875 9.515625 -12.03125 C 9.515625 -10.050781 9.894531 -8.515625 10.65625 -7.421875 C 11.414062 -6.328125 12.382812 -5.78125 13.5625 -5.78125 C 14.320312 -5.78125 14.914062 -6.007812 15.34375 -6.46875 C 15.78125 -6.925781 16.09375 -7.429688 16.28125 -7.984375 C 16.476562 -8.546875 16.597656 -8.992188 16.640625 -9.328125 L 23.78125 -9.328125 C 23.78125 -7.617188 23.363281 -6.015625 22.53125 -4.515625 C 21.695312 -3.023438 20.503906 -1.820312 18.953125 -0.90625 C 17.398438 0.0078125 15.519531 0.46875 13.3125 0.46875 C 11.007812 0.46875 8.941406 -0.0507812 7.109375 -1.09375 C 5.273438 -2.132812 3.828125 -3.585938 2.765625 -5.453125 C 1.703125 -7.316406 1.171875 -9.476562 1.171875 -11.9375 C 1.171875 -14.425781 1.695312 -16.617188 2.75 -18.515625 C 3.8125 -20.410156 5.257812 -21.894531 7.09375 -22.96875 C 8.925781 -24.039062 11 -24.578125 13.3125 -24.578125 Z M 13.3125 -24.578125 "/></g></g></g><g fill="#545454" fill-opacity="1"><g transform="translate(242.625228, 110.330777)"><g><path d="M 13.375 0.46875 C 10.894531 0.46875 8.738281 -0.0546875 6.90625 -1.109375 C 5.082031 -2.171875 3.671875 -3.628906 2.671875 -5.484375 C 1.671875 -7.347656 1.171875 -9.484375 1.171875 -11.890625 C 1.171875 -14.421875 1.691406 -16.640625 2.734375 -18.546875 C 3.785156 -20.453125 5.234375 -21.929688 7.078125 -22.984375 C 8.921875 -24.046875 11.035156 -24.578125 13.421875 -24.578125 C 15.941406 -24.578125 18.113281 -24.023438 19.9375 -22.921875 C 21.769531 -21.828125 23.175781 -20.320312 24.15625 -18.40625 C 25.144531 -16.5 25.640625 -14.328125 25.640625 -11.890625 C 25.640625 -9.492188 25.140625 -7.367188 24.140625 -5.515625 C 23.140625 -3.660156 21.722656 -2.195312 19.890625 -1.125 C 18.054688 -0.0625 15.882812 0.46875 13.375 0.46875 Z M 13.421875 -6.109375 C 14.390625 -6.109375 15.117188 -6.4375 15.609375 -7.09375 C 16.097656 -7.757812 16.421875 -8.566406 16.578125 -9.515625 C 16.742188 -10.460938 16.828125 -11.363281 16.828125 -12.21875 C 16.828125 -13.082031 16.742188 -13.96875 16.578125 -14.875 C 16.421875 -15.789062 16.097656 -16.554688 15.609375 -17.171875 C 15.117188 -17.785156 14.390625 -18.09375 13.421875 -18.09375 C 12.441406 -18.09375 11.707031 -17.785156 11.21875 -17.171875 C 10.726562 -16.554688 10.398438 -15.789062 10.234375 -14.875 C 10.066406 -13.96875 9.984375 -13.082031 9.984375 -12.21875 C 9.984375 -11.363281 10.066406 -10.460938 10.234375 -9.515625 C 10.398438 -8.566406 10.726562 -7.757812 11.21875 -7.09375 C 11.707031 -6.4375 12.441406 -6.109375 13.421875 -6.109375 Z M 13.421875 -6.109375 "/></g></g></g><g fill="#545454" fill-opacity="1"><g transform="translate(269.432832, 110.330777)"><g><path d="M 11.515625 0.46875 C 8.191406 0.46875 5.632812 -0.679688 3.84375 -2.984375 C 2.0625 -5.296875 1.171875 -8.375 1.171875 -12.21875 C 1.171875 -14.75 1.535156 -16.9375 2.265625 -18.78125 C 3.003906 -20.632812 4.070312 -22.0625 5.46875 -23.0625 C 6.875 -24.070312 8.5625 -24.578125 10.53125 -24.578125 C 11.144531 -24.578125 11.757812 -24.519531 12.375 -24.40625 C 13 -24.300781 13.609375 -24.125 14.203125 -23.875 C 14.804688 -23.632812 15.363281 -23.304688 15.875 -22.890625 C 16.382812 -22.484375 16.828125 -21.972656 17.203125 -21.359375 L 17.203125 -34.640625 L 26.296875 -34.640625 L 26.296875 0 L 19.890625 0 L 18.8125 -4.9375 C 18.53125 -4.101562 18.175781 -3.347656 17.75 -2.671875 C 17.320312 -2.003906 16.804688 -1.4375 16.203125 -0.96875 C 15.609375 -0.507812 14.921875 -0.15625 14.140625 0.09375 C 13.367188 0.34375 12.492188 0.46875 11.515625 0.46875 Z M 13.65625 -5.875 C 14.71875 -5.875 15.570312 -6.335938 16.21875 -7.265625 C 16.875 -8.191406 17.203125 -9.84375 17.203125 -12.21875 C 17.203125 -13.644531 17.050781 -14.796875 16.75 -15.671875 C 16.457031 -16.554688 16.046875 -17.195312 15.515625 -17.59375 C 14.992188 -17.988281 14.375 -18.1875 13.65625 -18.1875 C 12.632812 -18.1875 11.757812 -17.75 11.03125 -16.875 C 10.300781 -16.007812 9.9375 -14.457031 9.9375 -12.21875 C 9.9375 -9.84375 10.300781 -8.191406 11.03125 -7.265625 C 11.757812 -6.335938 12.632812 -5.875 13.65625 -5.875 Z M 13.65625 -5.875 "/></g></g></g><g fill="#545454" fill-opacity="1"><g transform="translate(298.0587, 110.330777)"><g><path d="M 10.1875 -9.984375 C 10.175781 -9.015625 10.320312 -8.226562 10.625 -7.625 C 10.9375 -7.019531 11.359375 -6.578125 11.890625 -6.296875 C 12.429688 -6.015625 13.03125 -5.875 13.6875 -5.875 C 14.507812 -5.875 15.25 -6.03125 15.90625 -6.34375 C 16.570312 -6.65625 17.09375 -7.273438 17.46875 -8.203125 L 25.484375 -8.203125 C 25.234375 -6.421875 24.523438 -4.878906 23.359375 -3.578125 C 22.191406 -2.273438 20.769531 -1.273438 19.09375 -0.578125 C 17.425781 0.117188 15.703125 0.46875 13.921875 0.46875 C 11.421875 0.46875 9.21875 -0.0390625 7.3125 -1.0625 C 5.40625 -2.082031 3.921875 -3.507812 2.859375 -5.34375 C 1.804688 -7.175781 1.28125 -9.3125 1.28125 -11.75 C 1.28125 -14.050781 1.765625 -16.171875 2.734375 -18.109375 C 3.710938 -20.054688 5.113281 -21.617188 6.9375 -22.796875 C 8.757812 -23.984375 10.960938 -24.578125 13.546875 -24.578125 C 16.171875 -24.578125 18.359375 -24.03125 20.109375 -22.9375 C 21.867188 -21.851562 23.1875 -20.363281 24.0625 -18.46875 C 24.945312 -16.582031 25.390625 -14.453125 25.390625 -12.078125 L 25.390625 -9.984375 Z M 10.140625 -15.0625 L 17.015625 -15.0625 C 17.015625 -15.664062 16.878906 -16.226562 16.609375 -16.75 C 16.347656 -17.269531 15.960938 -17.6875 15.453125 -18 C 14.941406 -18.3125 14.304688 -18.46875 13.546875 -18.46875 C 12.921875 -18.46875 12.351562 -18.3125 11.84375 -18 C 11.332031 -17.6875 10.921875 -17.269531 10.609375 -16.75 C 10.296875 -16.226562 10.140625 -15.664062 10.140625 -15.0625 Z M 10.140625 -15.0625 "/></g></g></g><g fill="#545454" fill-opacity="1"><g transform="translate(324.819691, 110.330777)"><g><path d="M 2.328125 0 L 2.328125 -24.109375 L 11.09375 -24.109375 L 11.09375 -17.4375 C 11.46875 -18.726562 12 -19.910156 12.6875 -20.984375 C 13.382812 -22.066406 14.269531 -22.9375 15.34375 -23.59375 C 16.414062 -24.25 17.695312 -24.578125 19.1875 -24.578125 C 19.289062 -24.578125 19.375 -24.578125 19.4375 -24.578125 C 19.5 -24.578125 19.53125 -24.578125 19.53125 -24.578125 L 19.53125 -16 C 19.488281 -16.007812 19.445312 -16.015625 19.40625 -16.015625 C 19.363281 -16.015625 19.304688 -16.019531 19.234375 -16.03125 C 17.535156 -16.207031 16.171875 -16.191406 15.140625 -15.984375 C 14.109375 -15.785156 13.316406 -15.457031 12.765625 -15 C 12.222656 -14.539062 11.859375 -14.007812 11.671875 -13.40625 C 11.492188 -12.8125 11.40625 -12.195312 11.40625 -11.5625 L 11.40625 0 Z M 2.328125 0 "/></g></g></g><g fill="#545454" fill-opacity="1"><g transform="translate(344.587388, 110.330777)"><g/></g></g><g fill="#545454" fill-opacity="1"><g transform="translate(353.70199, 110.330777)"><g><path d="M 13.3125 -24.578125 C 15.582031 -24.578125 17.5 -24.09375 19.0625 -23.125 C 20.625 -22.164062 21.8125 -20.898438 22.625 -19.328125 C 23.4375 -17.753906 23.859375 -16.066406 23.890625 -14.265625 L 16.546875 -14.265625 C 16.484375 -14.710938 16.351562 -15.21875 16.15625 -15.78125 C 15.957031 -16.34375 15.640625 -16.828125 15.203125 -17.234375 C 14.765625 -17.648438 14.15625 -17.859375 13.375 -17.859375 C 12.21875 -17.859375 11.285156 -17.367188 10.578125 -16.390625 C 9.867188 -15.421875 9.515625 -13.96875 9.515625 -12.03125 C 9.515625 -10.050781 9.894531 -8.515625 10.65625 -7.421875 C 11.414062 -6.328125 12.382812 -5.78125 13.5625 -5.78125 C 14.320312 -5.78125 14.914062 -6.007812 15.34375 -6.46875 C 15.78125 -6.925781 16.09375 -7.429688 16.28125 -7.984375 C 16.476562 -8.546875 16.597656 -8.992188 16.640625 -9.328125 L 23.78125 -9.328125 C 23.78125 -7.617188 23.363281 -6.015625 22.53125 -4.515625 C 21.695312 -3.023438 20.503906 -1.820312 18.953125 -0.90625 C 17.398438 0.0078125 15.519531 0.46875 13.3125 0.46875 C 11.007812 0.46875 8.941406 -0.0507812 7.109375 -1.09375 C 5.273438 -2.132812 3.828125 -3.585938 2.765625 -5.453125 C 1.703125 -7.316406 1.171875 -9.476562 1.171875 -11.9375 C 1.171875 -14.425781 1.695312 -16.617188 2.75 -18.515625 C 3.8125 -20.410156 5.257812 -21.894531 7.09375 -22.96875 C 8.925781 -24.039062 11 -24.578125 13.3125 -24.578125 Z M 13.3125 -24.578125 "/></g></g></g><g fill="#545454" fill-opacity="1"><g transform="translate(378.877819, 110.330777)"><g><path d="M 9.609375 0.46875 C 8.097656 0.46875 6.707031 0.171875 5.4375 -0.421875 C 4.175781 -1.015625 3.164062 -1.878906 2.40625 -3.015625 C 1.65625 -4.160156 1.28125 -5.566406 1.28125 -7.234375 C 1.28125 -9.835938 2.316406 -11.863281 4.390625 -13.3125 C 6.460938 -14.757812 9.691406 -15.484375 14.078125 -15.484375 L 15.953125 -15.484375 L 15.953125 -16.5 C 15.953125 -17.28125 15.734375 -17.847656 15.296875 -18.203125 C 14.867188 -18.566406 14.195312 -18.734375 13.28125 -18.703125 C 12.664062 -18.679688 11.984375 -18.53125 11.234375 -18.25 C 10.492188 -17.96875 9.9375 -17.414062 9.5625 -16.59375 L 2.21875 -16.59375 C 2.3125 -18.488281 2.878906 -20.023438 3.921875 -21.203125 C 4.960938 -22.378906 6.335938 -23.234375 8.046875 -23.765625 C 9.753906 -24.304688 11.640625 -24.578125 13.703125 -24.578125 C 16.503906 -24.578125 18.695312 -24.253906 20.28125 -23.609375 C 21.863281 -22.972656 22.984375 -22.09375 23.640625 -20.96875 C 24.296875 -19.84375 24.625 -18.539062 24.625 -17.0625 L 24.625 0 L 17.109375 0 L 16.3125 -3.828125 C 15.601562 -2.191406 14.71875 -1.066406 13.65625 -0.453125 C 12.601562 0.160156 11.253906 0.46875 9.609375 0.46875 Z M 12.796875 -5.265625 C 13.234375 -5.265625 13.640625 -5.34375 14.015625 -5.5 C 14.398438 -5.65625 14.734375 -5.867188 15.015625 -6.140625 C 15.296875 -6.410156 15.515625 -6.71875 15.671875 -7.0625 C 15.835938 -7.40625 15.929688 -7.769531 15.953125 -8.15625 L 15.953125 -11.1875 L 14.5 -11.1875 C 14.019531 -11.1875 13.40625 -11.097656 12.65625 -10.921875 C 11.914062 -10.742188 11.253906 -10.4375 10.671875 -10 C 10.085938 -9.5625 9.796875 -8.945312 9.796875 -8.15625 C 9.796875 -7.257812 10.101562 -6.550781 10.71875 -6.03125 C 11.332031 -5.519531 12.023438 -5.265625 12.796875 -5.265625 Z M 12.796875 -5.265625 "/></g></g></g><g fill="#545454" fill-opacity="1"><g transform="translate(406.011774, 110.330777)"><g><path d="M 2.328125 0 L 2.328125 -24.109375 L 11.09375 -24.109375 L 11.09375 -17.4375 C 11.46875 -18.726562 12 -19.910156 12.6875 -20.984375 C 13.382812 -22.066406 14.269531 -22.9375 15.34375 -23.59375 C 16.414062 -24.25 17.695312 -24.578125 19.1875 -24.578125 C 19.289062 -24.578125 19.375 -24.578125 19.4375 -24.578125 C 19.5 -24.578125 19.53125 -24.578125 19.53125 -24.578125 L 19.53125 -16 C 19.488281 -16.007812 19.445312 -16.015625 19.40625 -16.015625 C 19.363281 -16.015625 19.304688 -16.019531 19.234375 -16.03125 C 17.535156 -16.207031 16.171875 -16.191406 15.140625 -15.984375 C 14.109375 -15.785156 13.316406 -15.457031 12.765625 -15 C 12.222656 -14.539062 11.859375 -14.007812 11.671875 -13.40625 C 11.492188 -12.8125 11.40625 -12.195312 11.40625 -11.5625 L 11.40625 0 Z M 2.328125 0 "/></g></g></g><g fill="#545454" fill-opacity="1"><g transform="translate(425.77947, 110.330777)"><g><path d="M 10.1875 -9.984375 C 10.175781 -9.015625 10.320312 -8.226562 10.625 -7.625 C 10.9375 -7.019531 11.359375 -6.578125 11.890625 -6.296875 C 12.429688 -6.015625 13.03125 -5.875 13.6875 -5.875 C 14.507812 -5.875 15.25 -6.03125 15.90625 -6.34375 C 16.570312 -6.65625 17.09375 -7.273438 17.46875 -8.203125 L 25.484375 -8.203125 C 25.234375 -6.421875 24.523438 -4.878906 23.359375 -3.578125 C 22.191406 -2.273438 20.769531 -1.273438 19.09375 -0.578125 C 17.425781 0.117188 15.703125 0.46875 13.921875 0.46875 C 11.421875 0.46875 9.21875 -0.0390625 7.3125 -1.0625 C 5.40625 -2.082031 3.921875 -3.507812 2.859375 -5.34375 C 1.804688 -7.175781 1.28125 -9.3125 1.28125 -11.75 C 1.28125 -14.050781 1.765625 -16.171875 2.734375 -18.109375 C 3.710938 -20.054688 5.113281 -21.617188 6.9375 -22.796875 C 8.757812 -23.984375 10.960938 -24.578125 13.546875 -24.578125 C 16.171875 -24.578125 18.359375 -24.03125 20.109375 -22.9375 C 21.867188 -21.851562 23.1875 -20.363281 24.0625 -18.46875 C 24.945312 -16.582031 25.390625 -14.453125 25.390625 -12.078125 L 25.390625 -9.984375 Z M 10.140625 -15.0625 L 17.015625 -15.0625 C 17.015625 -15.664062 16.878906 -16.226562 16.609375 -16.75 C 16.347656 -17.269531 15.960938 -17.6875 15.453125 -18 C 14.941406 -18.3125 14.304688 -18.46875 13.546875 -18.46875 C 12.921875 -18.46875 12.351562 -18.3125 11.84375 -18 C 11.332031 -17.6875 10.921875 -17.269531 10.609375 -16.75 C 10.296875 -16.226562 10.140625 -15.664062 10.140625 -15.0625 Z M 10.140625 -15.0625 "/></g></g></g><g fill="#545454" fill-opacity="1"><g transform="translate(452.54045, 110.330777)"><g><path d="M 10.1875 -9.984375 C 10.175781 -9.015625 10.320312 -8.226562 10.625 -7.625 C 10.9375 -7.019531 11.359375 -6.578125 11.890625 -6.296875 C 12.429688 -6.015625 13.03125 -5.875 13.6875 -5.875 C 14.507812 -5.875 15.25 -6.03125 15.90625 -6.34375 C 16.570312 -6.65625 17.09375 -7.273438 17.46875 -8.203125 L 25.484375 -8.203125 C 25.234375 -6.421875 24.523438 -4.878906 23.359375 -3.578125 C 22.191406 -2.273438 20.769531 -1.273438 19.09375 -0.578125 C 17.425781 0.117188 15.703125 0.46875 13.921875 0.46875 C 11.421875 0.46875 9.21875 -0.0390625 7.3125 -1.0625 C 5.40625 -2.082031 3.921875 -3.507812 2.859375 -5.34375 C 1.804688 -7.175781 1.28125 -9.3125 1.28125 -11.75 C 1.28125 -14.050781 1.765625 -16.171875 2.734375 -18.109375 C 3.710938 -20.054688 5.113281 -21.617188 6.9375 -22.796875 C 8.757812 -23.984375 10.960938 -24.578125 13.546875 -24.578125 C 16.171875 -24.578125 18.359375 -24.03125 20.109375 -22.9375 C 21.867188 -21.851562 23.1875 -20.363281 24.0625 -18.46875 C 24.945312 -16.582031 25.390625 -14.453125 25.390625 -12.078125 L 25.390625 -9.984375 Z M 10.140625 -15.0625 L 17.015625 -15.0625 C 17.015625 -15.664062 16.878906 -16.226562 16.609375 -16.75 C 16.347656 -17.269531 15.960938 -17.6875 15.453125 -18 C 14.941406 -18.3125 14.304688 -18.46875 13.546875 -18.46875 C 12.921875 -18.46875 12.351562 -18.3125 11.84375 -18 C 11.332031 -17.6875 10.921875 -17.269531 10.609375 -16.75 C 10.296875 -16.226562 10.140625 -15.664062 10.140625 -15.0625 Z M 10.140625 -15.0625 "/></g></g></g><g fill="#545454" fill-opacity="1"><g transform="translate(479.301452, 110.330777)"><g><path d="M 2.328125 0 L 2.328125 -24.109375 L 11.09375 -24.109375 L 11.09375 -17.4375 C 11.46875 -18.726562 12 -19.910156 12.6875 -20.984375 C 13.382812 -22.066406 14.269531 -22.9375 15.34375 -23.59375 C 16.414062 -24.25 17.695312 -24.578125 19.1875 -24.578125 C 19.289062 -24.578125 19.375 -24.578125 19.4375 -24.578125 C 19.5 -24.578125 19.53125 -24.578125 19.53125 -24.578125 L 19.53125 -16 C 19.488281 -16.007812 19.445312 -16.015625 19.40625 -16.015625 C 19.363281 -16.015625 19.304688 -16.019531 19.234375 -16.03125 C 17.535156 -16.207031 16.171875 -16.191406 15.140625 -15.984375 C 14.109375 -15.785156 13.316406 -15.457031 12.765625 -15 C 12.222656 -14.539062 11.859375 -14.007812 11.671875 -13.40625 C 11.492188 -12.8125 11.40625 -12.195312 11.40625 -11.5625 L 11.40625 0 Z M 2.328125 0 "/></g></g></g></svg>